<svg width="40" height="41" viewBox="0 0 40 41" fill="none" xmlns="http://www.w3.org/2000/svg">
<ellipse cx="20" cy="20.004" rx="20" ry="20.004" fill="white"/>
<path d="M25 9.02539H15C12.2386 9.02539 10 11.264 10 14.0254V24.0254C10 26.7868 12.2386 29.0254 15 29.0254H25C27.7614 29.0254 30 26.7868 30 24.0254V14.0254C30 11.264 27.7614 9.02539 25 9.02539Z" stroke="#383638" stroke-width="2" stroke-linecap="round" stroke-linejoin="round"/>
<path d="M24 18.3954C24.1234 19.2276 23.9813 20.0776 23.5938 20.8244C23.2063 21.5712 22.5931 22.1768 21.8416 22.5551C21.0901 22.9333 20.2384 23.065 19.4078 22.9313C18.5771 22.7977 17.8098 22.4055 17.2148 21.8106C16.6199 21.2156 16.2277 20.4483 16.0941 19.6176C15.9604 18.7869 16.0921 17.9353 16.4703 17.1838C16.8486 16.4322 17.4542 15.8191 18.201 15.4316C18.9478 15.0441 19.7978 14.902 20.63 15.0254C21.4789 15.1513 22.2648 15.5469 22.8717 16.1537C23.4785 16.7605 23.8741 17.5465 24 18.3954Z" stroke="#383638" stroke-width="2" stroke-linecap="round" stroke-linejoin="round"/>
<path d="M25.5 13.5254H25.51" stroke="#383638" stroke-width="2" stroke-linecap="round" stroke-linejoin="round"/>
</svg>
