<svg width="99" height="72" viewBox="0 0 99 72" fill="none" xmlns="http://www.w3.org/2000/svg">
<ellipse cx="2.77213" cy="3.11682" rx="2.5" ry="2.62469" fill="#F62424"/>
<ellipse cx="2.77213" cy="46.9012" rx="2.5" ry="2.62469" fill="#F62424"/>
<ellipse cx="40.1622" cy="3.11682" rx="2.5" ry="2.62469" fill="#F62424"/>
<ellipse cx="40.1622" cy="46.9012" rx="2.5" ry="2.62469" fill="#F62424"/>
<ellipse cx="77.5522" cy="3.11682" rx="2.5" ry="2.62469" fill="#F62424"/>
<ellipse cx="77.5522" cy="46.9012" rx="2.5" ry="2.62469" fill="#F62424"/>
<ellipse cx="2.77213" cy="25.0089" rx="2.5" ry="2.62469" fill="#F62424"/>
<ellipse cx="2.77213" cy="68.7931" rx="2.5" ry="2.62469" fill="#F62424"/>
<ellipse cx="40.1622" cy="25.0089" rx="2.5" ry="2.62469" fill="#F62424"/>
<ellipse cx="40.1622" cy="68.7931" rx="2.5" ry="2.62469" fill="#F62424"/>
<ellipse cx="77.5522" cy="25.0089" rx="2.5" ry="2.62469" fill="#F62424"/>
<ellipse cx="77.5522" cy="68.7931" rx="2.5" ry="2.62469" fill="#F62424"/>
<ellipse cx="21.4671" cy="3.11682" rx="2.5" ry="2.62469" fill="#F62424"/>
<ellipse cx="21.4671" cy="46.9012" rx="2.5" ry="2.62469" fill="#F62424"/>
<ellipse cx="58.8572" cy="3.11682" rx="2.5" ry="2.62469" fill="#F62424"/>
<ellipse cx="58.8572" cy="46.9012" rx="2.5" ry="2.62469" fill="#F62424"/>
<ellipse cx="96.2472" cy="3.11682" rx="2.5" ry="2.62469" fill="#F62424"/>
<ellipse cx="96.2472" cy="46.9012" rx="2.5" ry="2.62469" fill="#F62424"/>
<ellipse cx="21.4671" cy="25.0089" rx="2.5" ry="2.62469" fill="#F62424"/>
<ellipse cx="21.4671" cy="68.7931" rx="2.5" ry="2.62469" fill="#F62424"/>
<ellipse cx="58.8572" cy="25.0089" rx="2.5" ry="2.62469" fill="#F62424"/>
<ellipse cx="58.8572" cy="68.7931" rx="2.5" ry="2.62469" fill="#F62424"/>
<ellipse cx="96.2472" cy="25.0089" rx="2.5" ry="2.62469" fill="#F62424"/>
<ellipse cx="96.2472" cy="68.7931" rx="2.5" ry="2.62469" fill="#F62424"/>
</svg>
