<svg width="40" height="41" viewBox="0 0 40 41" fill="none" xmlns="http://www.w3.org/2000/svg">
<ellipse cx="20" cy="20.004" rx="20" ry="20.004" fill="white"/>
<path d="M31 10.0254C30.0424 10.7009 28.9821 11.2175 27.86 11.5554C27.2577 10.8629 26.4573 10.3721 25.567 10.1493C24.6767 9.92655 23.7395 9.98259 22.8821 10.3098C22.0247 10.6371 21.2884 11.2198 20.773 11.9791C20.2575 12.7384 19.9877 13.6377 20 14.5554V15.5554C18.2426 15.601 16.5013 15.2112 14.931 14.4208C13.3607 13.6305 12.0103 12.464 11 11.0254C11 11.0254 7 20.0254 16 24.0254C13.9405 25.4234 11.4872 26.1243 9 26.0254C18 31.0254 29 26.0254 29 14.5254C28.9991 14.2468 28.9723 13.969 28.92 13.6954C29.9406 12.6889 30.6608 11.4181 31 10.0254V10.0254Z" stroke="#383638" stroke-width="2" stroke-linecap="round" stroke-linejoin="round"/>
</svg>
